<?xml version="1.0" encoding="UTF-8"?>
<svg id="Layer_1" data-name="Layer 1" xmlns="http://www.w3.org/2000/svg" viewBox="0 0 188.27 166.71">
  <defs>
    <style>
      .cls-1 {
        fill: #fff;
        stroke: #000;
        stroke-miterlimit: 10;
        stroke-width: 6px;
      }

      .cls-2 {
        stroke-width: 0px;
      }
    </style>
  </defs>
  <g id="rice">
    <path class="cls-1" d="m182.89,90.3c-1,2.63-3.95,4.55-7.21,5.2-1,.21-2.02.31-3.03.3-.61,0-.95.67-.64,1.19.3.5.51,1.02.61,1.57.39,2.16-1.11,4.68-4.43,6.36-3.31,1.68-7.51,2.04-10.7,1.28-1.13-.27-2.14-.66-3.02-1.16-.43-.24-.96-.05-1.12.42-.24.67-.64,1.31-1.24,1.91-1.79,1.88-5.44,3.23-9.61,3.23-4.75,0-8.89-1.69-11.09-4.19-.32-.36-.86-.36-1.18,0-2.2,2.51-6.35,4.19-11.09,4.19s-8.89-1.69-11.08-4.19c-.32-.36-.86-.36-1.18,0-2.21,2.5-6.35,4.19-11.09,4.19s-8.89-1.69-11.09-4.19c-.32-.36-.86-.36-1.18,0-2.2,2.51-6.34,4.19-11.08,4.19s-8.89-1.68-11.09-4.19c-.32-.36-.86-.36-1.18,0-2.2,2.5-6.35,4.19-11.09,4.19-.88,0-1.74-.06-2.57-.17-.84-.11-1.59-.26-2.51-.5-1.74-.43-3.22-1.15-4.3-1.99-.71-.58-1.27-1.22-1.64-1.9-.22-.41-.76-.51-1.14-.24-.77.56-1.7,1.03-2.78,1.39-3.02,1.02-7.26.98-10.87-.43-3.61-1.41-5.59-3.81-5.6-5.99,0-.57.11-1.13.33-1.66.23-.54-.18-1.13-.77-1.08-1.05.09-2.13.08-3.17-.07-3.35-.4-6.63-2.09-8.12-4.61-1.52-2.51-.82-5.18,1.26-6.91.52-.45,1.12-.83,1.78-1.16.59-.29.56-1.14-.04-1.4-.71-.3-1.35-.67-1.93-1.1-2.24-1.65-3.19-4.29-1.91-6.87.29-.65.76-1.23,1.26-1.78.52-.54,1.16-1.02,1.81-1.45,1.38-.83,2.96-1.41,4.53-1.64.94-.16,1.91-.24,2.9-.26.63-.01.99-.73.61-1.23-1.82-2.38-1.82-5.25.38-7.69,2.29-2.54,6.4-3.99,10.7-4.07.62-.01.98-.73.6-1.23-1.81-2.38-1.82-5.24.37-7.68,2.29-2.54,6.41-3.99,10.71-4.07.62-.01.98-.73.6-1.23-1.82-2.38-1.82-5.26.38-7.69,2.28-2.54,6.4-3.99,10.7-4.06.62-.01.98-.73.6-1.23-1.82-2.38-1.83-5.25.37-7.68,1.78-1.97,4.62-3.28,7.8-3.8.96-.16,1.94-.25,2.93-.27.61-.01.97-.71.61-1.21-.33-.48-.58-.98-.75-1.52-.6-2.14.66-4.73,3.82-6.53,3.15-1.81,7.31-2.34,10.57-1.68,1.16.22,2.19.56,3.1,1.02.45.23.98-.01,1.11-.5.18-.66.51-1.3,1.04-1.9,1.62-1.92,5.14-3.34,9.34-3.5,4.18-.16,7.89.98,9.86,2.76.66.59,1.13,1.23,1.42,1.9.19.43.71.6,1.11.35.84-.53,1.83-.98,2.94-1.28,3.1-.89,7.33-.71,10.79.84,3.5,1.54,5.25,4.01,5.04,6.19-.05.56-.19,1.08-.44,1.58h0c-.29.55.1,1.2.71,1.17,1.03-.05,2.07,0,3.08.19,1.7.31,3.18.77,4.52,1.41,1.34.64,2.48,1.46,3.37,2.44,2.2,2.44,2.18,5.31.38,7.69-.38.5-.02,1.22.6,1.23,4.3.08,8.42,1.53,10.7,4.07,2.19,2.44,2.19,5.31.37,7.69-.38.5-.02,1.22.6,1.23,4.3.08,8.42,1.52,10.71,4.07,2.2,2.44,2.18,5.31.38,7.69-.38.5-.02,1.22.6,1.23,4.3.08,8.41,1.52,10.7,4.07,2.2,2.44,2.18,5.31.37,7.68-.38.5-.02,1.22.61,1.23.98.02,1.95.1,2.89.26,1.6.27,3.11.73,4.44,1.37.34.16.65.33.97.51.29.17.64.44.93.69.62.49,1.18,1.04,1.59,1.66,1.75,2.45,1.3,5.15-.6,6.96-.48.45-1.03.86-1.65,1.21-.57.32-.5,1.17.12,1.4.75.28,1.44.62,2.03,1.03,2.39,1.56,3.6,4.16,2.55,6.78Z"/>
  </g>
  <path id="bowl" class="cls-2" d="m126.09,152c-9.17,2.05-19.76,3.2-31.94,3.2s-21.97-1.07-30.9-2.98c-.35-.07-.71-.14-1.06-.22-7.15-1.6-13.45-3.74-18.99-6.29C7.67,129.36,2.84,95.94,3,78.01c.06-6.65,5.5-11.99,12.15-11.99h157.96c6.65,0,12.09,5.34,12.15,12,.19,20.73-6.3,62.17-59.18,73.99Z"/>
  <path id="base" class="cls-2" d="m94.03,154.62c13.04,0,24.37-1.15,34.17-3.2v10.4c0,2.7-2.49,4.89-5.56,4.89h-57.25c-3.07,0-5.56-2.19-5.56-4.89v-10.4c9.83,2.05,21.14,3.2,34.19,3.2Z"/>
  <path id="bowl-2" data-name="bowl" class="cls-1" d="m126.09,146.48c-9.17,2.05-19.76,3.2-31.94,3.2s-21.97-1.07-30.9-2.98c-.35-.07-.71-.14-1.06-.22-7.15-1.6-13.45-3.74-18.99-6.29C7.67,123.83,2.84,90.41,3,72.48c.06-6.65,5.5-11.99,12.15-11.99h157.96c6.65,0,12.09,5.34,12.15,12,.19,20.73-6.3,62.17-59.18,73.99Z"/>
  <path id="base-2" data-name="base" class="cls-1" d="m93.9,150.1c12.19,0,22.78-1.15,31.94-3.2v10.4c0,2.7-2.32,4.89-5.2,4.89h-53.52c-2.87,0-5.2-2.19-5.2-4.89v-10.4c9.18,2.05,19.76,3.2,31.96,3.2Z"/>
</svg>