<?xml version="1.0" encoding="utf-8"?>
<!-- Generator: Adobe Illustrator 27.9.6, SVG Export Plug-In . SVG Version: 9.03 Build 54986)  -->
<svg version="1.1" id="Layer_1" xmlns="http://www.w3.org/2000/svg" xmlns:xlink="http://www.w3.org/1999/xlink" x="0px" y="0px"
	 viewBox="0 0 476.1 440.1" style="enable-background:new 0 0 476.1 440.1;" xml:space="preserve">
<style type="text/css">
	.st0{fill:#FFFFFF;stroke:#000000;stroke-width:6;stroke-miterlimit:10;}
	.st1{fill:#FFFFFF;stroke:#000000;stroke-width:4;stroke-miterlimit:10;}
	.st2{fill:#FFFFFF;stroke:#000000;stroke-width:5;}
</style>
<g id="rice">
	<path class="st0" d="M324.5,98c-1.1,2.9-4.3,4.9-7.8,5.7c-1.1,0.2-2.2,0.3-3.3,0.3c-0.7,0-1,0.7-0.7,1.3c0.3,0.5,0.5,1.1,0.7,1.7
		c0.4,2.3-1.2,5.1-4.8,6.9c-3.6,1.8-8.2,2.2-11.6,1.4c-1.2-0.3-2.3-0.7-3.3-1.3c-0.5-0.3-1-0.1-1.2,0.4c-0.3,0.7-0.7,1.4-1.3,2.1
		c-2,2.1-5.9,3.5-10.5,3.5c-5.2,0-9.7-1.8-12.1-4.6c-0.3-0.4-0.9-0.4-1.3,0c-2.4,2.7-6.9,4.6-12.1,4.6s-9.7-1.8-12.1-4.6
		c-0.3-0.4-0.9-0.4-1.3,0c-2.4,2.7-6.9,4.6-12.1,4.6s-9.7-1.8-12.1-4.6c-0.3-0.4-0.9-0.4-1.3,0c-2.4,2.7-6.9,4.6-12.1,4.6
		s-9.7-1.8-12.1-4.6c-0.3-0.4-0.9-0.4-1.3,0c-2.4,2.7-6.9,4.6-12.1,4.6c-0.9,0-1.9-0.1-2.8-0.2c-0.9-0.1-1.7-0.3-2.7-0.5
		c-1.9-0.5-3.5-1.3-4.7-2.2c-0.8-0.6-1.4-1.3-1.8-2.1c-0.2-0.4-0.8-0.6-1.2-0.3c-0.8,0.6-1.9,1.1-3,1.5c-3.3,1.1-7.9,1.1-11.8-0.5
		c-3.9-1.5-6.1-4.2-6.1-6.5c0-0.6,0.1-1.2,0.4-1.8c0.2-0.6-0.2-1.2-0.8-1.2c-1.1,0.1-2.3,0.1-3.4-0.1c-3.6-0.4-7.2-2.3-8.8-5
		c-1.6-2.7-0.9-5.6,1.4-7.5c0.6-0.5,1.2-0.9,1.9-1.3c0.6-0.3,0.6-1.2,0-1.5c-0.8-0.3-1.5-0.7-2.1-1.2c-2.4-1.8-3.5-4.7-2.1-7.5
		c0.3-0.7,0.8-1.3,1.4-1.9c0.6-0.6,1.3-1.1,2-1.6c1.5-0.9,3.2-1.5,4.9-1.8c1-0.2,2.1-0.3,3.1-0.3c0.7,0,1.1-0.8,0.7-1.3
		c-2-2.6-2-5.7,0.4-8.4c2.5-2.8,7-4.3,11.6-4.4c0.7,0,1.1-0.8,0.7-1.3c-2-2.6-2-5.7,0.4-8.4c2.5-2.8,7-4.3,11.7-4.4
		c0.7,0,1.1-0.8,0.7-1.3c-2-2.6-2-5.7,0.4-8.4c2.5-2.8,7-4.3,11.6-4.4c0.7,0,1.1-0.8,0.7-1.3c-2-2.6-2-5.7,0.4-8.4
		c1.9-2.1,5-3.6,8.5-4.1c1-0.2,2.1-0.3,3.2-0.3c0.7,0,1.1-0.8,0.7-1.3c-0.4-0.5-0.6-1.1-0.8-1.7c-0.6-2.3,0.7-5.1,4.2-7.1
		c3.4-2,7.9-2.5,11.5-1.8c1.3,0.2,2.4,0.6,3.4,1.1c0.5,0.2,1.1,0,1.2-0.6c0.2-0.7,0.6-1.4,1.1-2.1c1.8-2.1,5.6-3.6,10.2-3.8
		c4.6-0.2,8.6,1.1,10.7,3c0.7,0.6,1.2,1.3,1.6,2.1c0.2,0.5,0.8,0.7,1.2,0.4c0.9-0.6,2-1.1,3.2-1.4c3.4-1,8-0.8,11.7,0.9
		c3.8,1.7,5.7,4.4,5.5,6.7c0,0.6-0.2,1.2-0.5,1.7v0c-0.3,0.6,0.1,1.3,0.8,1.3c1.1,0,2.3,0,3.4,0.2c1.9,0.3,3.5,0.8,4.9,1.5
		c1.5,0.7,2.7,1.6,3.7,2.6c2.4,2.6,2.4,5.8,0.4,8.4c-0.4,0.5,0,1.3,0.7,1.3c4.7,0.1,9.2,1.7,11.6,4.4c2.4,2.7,2.4,5.8,0.4,8.4
		c-0.4,0.5,0,1.3,0.6,1.3c4.7,0.1,9.2,1.7,11.6,4.4c2.4,2.7,2.4,5.8,0.4,8.4c-0.4,0.5,0,1.3,0.7,1.3c4.7,0.1,9.1,1.7,11.6,4.4
		c2.4,2.7,2.4,5.8,0.4,8.4c-0.4,0.5,0,1.3,0.7,1.3c1.1,0,2.1,0.1,3.1,0.3c1.7,0.3,3.4,0.8,4.8,1.5c0.4,0.2,0.7,0.4,1,0.6
		c0.3,0.2,0.7,0.5,1,0.8c0.7,0.5,1.3,1.1,1.7,1.8c1.9,2.7,1.4,5.6-0.6,7.6c-0.5,0.5-1.1,0.9-1.8,1.3c-0.6,0.3-0.5,1.3,0.1,1.5
		c0.8,0.3,1.6,0.7,2.2,1.1C324.3,92.3,325.6,95.1,324.5,98L324.5,98z"/>
</g>
<g id="bowl_00000081649142786282176910000017013543105601997213_">
	<path id="bowl" d="M262.7,165.1c-10,2.2-21.5,3.5-34.8,3.5s-23.9-1.2-33.6-3.2c-0.4-0.1-0.8-0.1-1.1-0.2
		c-7.8-1.7-14.6-4.1-20.7-6.8c-38.6-17.8-43.9-54.2-43.7-73.7c0.1-7.2,6-13.1,13.2-13.1h171.9c7.2,0,13.1,5.8,13.2,13.1
		C327.3,107.2,320.2,152.2,262.7,165.1L262.7,165.1z"/>
	<path id="base" d="M227.8,167.9c14.2,0,26.5-1.3,37.2-3.5v11.3c0,2.9-2.7,5.3-6,5.3h-62.3c-3.3,0-6.1-2.4-6.1-5.3v-11.3
		C201.3,166.7,213.6,167.9,227.8,167.9L227.8,167.9z"/>
	<path id="bowl-2" class="st0" d="M262.7,159.1c-10,2.2-21.5,3.5-34.8,3.5s-23.9-1.2-33.6-3.2c-0.4-0.1-0.8-0.1-1.1-0.2
		c-7.8-1.7-14.6-4.1-20.7-6.8c-38.6-17.8-43.9-54.2-43.7-73.7c0.1-7.2,6-13.1,13.2-13.1h171.9c7.2,0,13.1,5.8,13.2,13.1
		C327.3,101.1,320.2,146.2,262.7,159.1L262.7,159.1z"/>
	<path id="base-2" class="st0" d="M227.7,163c13.3,0,24.8-1.3,34.8-3.5v11.3c0,2.9-2.5,5.3-5.6,5.3h-58.2c-3.1,0-5.6-2.4-5.6-5.3
		v-11.3C202.9,161.8,214.4,163,227.7,163L227.7,163z"/>
</g>
<g id="lastname">
	<path d="M17.8,422.9c-4.1-2.4-7.2-5.8-9.4-10.1c-2.2-4.3-3.2-9.3-3.2-15v-1.3c0-5.5,1.3-10.5,3.9-14.8s6.3-7.8,11.2-10.2
		c4.8-2.4,10.4-3.7,16.8-3.7c4.5,0,9,0.8,13.2,2.5s7.5,3.9,9.6,6.9c1.2,1.6,1.9,3.4,1.9,5.1c0,1.9-0.7,3.5-2,4.7s-3,1.8-5,1.8
		c-1.2,0-2.4-0.3-3.5-0.8s-2.5-1.5-4.5-2.8c-1.8-1.3-3.5-2.3-5-2.8s-3.2-0.8-5-0.8c-2.9,0-5.3,0.6-7.2,1.9c-2,1.2-3.4,3-4.4,5.3
		s-1.5,4.9-1.5,8v1.3c0,3.1,0.5,5.8,1.4,8.1s2.4,4,4.3,5.2s4.4,1.8,7.3,1.8c2.6,0,4.7-0.4,6.5-1.1c1.7-0.7,3.1-1.7,4-3
		s1.5-2.7,1.8-4.3h-8.5c-1.8,0-3.2-0.5-4.3-1.6s-1.6-2.4-1.6-4.1s0.5-3.1,1.6-4.1c1.1-1,2.5-1.5,4.3-1.5h14.2c3,0,5.2,0.7,6.8,2.2
		c1.5,1.5,2.3,3.6,2.3,6.4v18.1c0,1.9-0.6,3.5-1.8,4.6c-1.2,1.2-2.9,1.8-4.9,1.8s-3.5-0.5-4.5-1.4s-1.8-2.3-2.2-4l-0.5-2.2
		c-1.6,2.4-3.8,4.3-6.7,5.7s-6.4,2.1-10.5,2.1C26.8,426.4,21.9,425.2,17.8,422.9L17.8,422.9z"/>
	<path class="st1" d="M18.7,418.6c-4.1-2.4-7.2-5.8-9.4-10.1c-2.2-4.3-3.2-9.3-3.2-15v-1.3c0-5.5,1.3-10.5,3.9-14.8
		s6.3-7.8,11.1-10.2c4.8-2.4,10.4-3.7,16.8-3.7c4.5,0,9,0.8,13.2,2.5s7.5,3.9,9.6,6.9c1.2,1.6,1.9,3.4,1.9,5.1c0,1.9-0.7,3.5-2,4.7
		s-3,1.8-5,1.8c-1.2,0-2.4-0.3-3.5-0.8s-2.5-1.5-4.5-2.8c-1.8-1.3-3.5-2.3-5-2.8s-3.2-0.8-5-0.8c-2.9,0-5.3,0.6-7.2,1.9
		c-2,1.2-3.4,3-4.4,5.3s-1.5,4.9-1.5,8v1.3c0,3.1,0.5,5.8,1.4,8.1s2.4,4,4.3,5.2s4.4,1.8,7.3,1.8c2.6,0,4.7-0.4,6.5-1.1
		c1.7-0.7,3.1-1.7,4-3s1.5-2.7,1.8-4.3h-8.5c-1.8,0-3.2-0.5-4.3-1.6s-1.6-2.4-1.6-4.1s0.5-3.1,1.6-4.1c1.1-1,2.5-1.5,4.3-1.5h14.2
		c3,0,5.2,0.7,6.8,2.2c1.5,1.5,2.3,3.6,2.3,6.4v18.1c0,1.9-0.6,3.5-1.8,4.6c-1.2,1.2-2.9,1.8-4.9,1.8s-3.5-0.5-4.5-1.4
		s-1.8-2.3-2.2-4l-0.5-2.2c-1.6,2.4-3.8,4.3-6.7,5.7s-6.4,2.1-10.5,2.1C27.7,422.2,22.8,421,18.7,418.6L18.7,418.6z"/>
	<path d="M127.9,414.9l-16.1-37.1c-1.5-3.5-3.2-6-5.3-7.5c-2.1-1.5-4.7-2.3-7.9-2.3s-5.8,0.8-8,2.3c-2.1,1.5-3.9,4-5.3,7.5
		l-16.1,37.1c-0.5,1.3-0.8,2.5-0.8,3.8c0,2.2,0.8,4,2.3,5.4c1.5,1.4,3.6,2.1,6.1,2.1c2.1,0,3.8-0.5,5-1.4s2.3-2.4,3-4.4l2.1-4.7
		h23.1l1.8,4.7c0.7,2,1.7,3.4,3,4.4s3,1.4,5.1,1.4c2.6,0,4.7-0.7,6.3-2.1c1.6-1.4,2.3-3.2,2.3-5.4
		C128.7,417.4,128.4,416.2,127.9,414.9L127.9,414.9z M100.2,387.5c1.5,4.4,4.1,11.8,5.3,15.2c0.3,0.9-0.4,1.9-1.3,1.9H93
		c-1,0-1.7-1-1.3-1.9l5.8-15.2C98,386.2,99.8,386.2,100.2,387.5L100.2,387.5z"/>
	<path class="st1" d="M128.8,410.6l-16.1-37.1c-1.5-3.5-3.2-6-5.3-7.5c-2.1-1.5-4.7-2.3-7.9-2.3s-5.8,0.8-8,2.3
		c-2.1,1.5-3.9,4-5.3,7.5l-16.1,37.1c-0.5,1.3-0.8,2.5-0.8,3.8c0,2.2,0.8,4,2.3,5.4c1.5,1.4,3.6,2.1,6.1,2.1c2.1,0,3.8-0.5,5-1.4
		s2.3-2.4,3-4.4l2.1-4.7H111l1.8,4.7c0.7,2,1.7,3.4,3,4.4s3,1.4,5.1,1.4c2.6,0,4.7-0.7,6.3-2.1c1.6-1.4,2.3-3.2,2.3-5.4
		C129.6,413.2,129.3,411.9,128.8,410.6L128.8,410.6z M101.1,383.2c1.5,4.4,4.1,11.8,5.3,15.2c0.3,0.9-0.4,1.9-1.3,1.9H94
		c-1,0-1.7-1-1.3-1.9l5.8-15.2c0.2-0.6,0.8-0.9,1.3-0.9C100.4,382.3,100.9,382.7,101.1,383.2z"/>
	<path d="M135.7,423.2c-1.6-1.5-2.4-3.6-2.4-6.4v-40.4c0-2.5,0.8-4.5,2.4-6.1s3.8-2.3,6.5-2.3s4.8,0.8,6.4,2.3
		c1.6,1.5,2.4,3.6,2.4,6.1v35.5H166c2.1,0,3.9,0.6,5.2,1.9c1.3,1.2,2,2.9,2,4.9s-0.7,3.6-2,4.9c-1.3,1.2-3,1.9-5.2,1.9h-23.6
		C139.5,425.4,137.2,424.6,135.7,423.2L135.7,423.2z"/>
	<path class="st1" d="M134.2,412.6v-40.4c0-2.5,0.8-4.5,2.4-6.1s3.8-2.3,6.5-2.3s4.8,0.8,6.4,2.3c1.6,1.5,2.4,3.6,2.4,6.1v35.5h14.9
		c2.1,0,3.9,0.6,5.2,1.9c1.3,1.2,2,2.9,2,4.9s-0.7,3.6-2,4.9c-1.3,1.2-3,1.9-5.2,1.9h-23.6c-0.6,0-5.1-0.3-7.6-4
		C134.5,415.3,134.3,413.5,134.2,412.6z"/>
	<path d="M183,423.2c-1.6-1.5-2.4-3.6-2.4-6.4v-40.4c0-2.5,0.8-4.5,2.4-6.1s3.8-2.3,6.5-2.3s4.8,0.8,6.4,2.3
		c1.6,1.5,2.4,3.6,2.4,6.1v35.5h14.9c2.1,0,3.9,0.6,5.2,1.9c1.3,1.2,2,2.9,2,4.9s-0.7,3.6-2,4.9c-1.3,1.2-3,1.9-5.2,1.9h-23.6
		C186.8,425.4,184.5,424.6,183,423.2L183,423.2z"/>
	<path class="st1" d="M179.4,413v-40.4c0-2.5,0.8-4.5,2.4-6.1c1.6-1.5,3.8-2.3,6.5-2.3s4.8,0.8,6.4,2.3c1.6,1.5,2.4,3.6,2.4,6.1V408
		h14.9c2.1,0,3.9,0.6,5.2,1.9c1.3,1.2,2,2.9,2,4.9c0,2-0.7,3.6-2,4.9c-1.3,1.2-3,1.9-5.2,1.9h-23.6c-0.6,0-5.1-0.3-7.6-4
		C179.7,415.8,179.5,413.9,179.4,413z"/>
	<path d="M283.2,414.9l-16.1-37.1c-1.5-3.5-3.2-6-5.3-7.5c-2.1-1.5-4.7-2.3-7.9-2.3c-3.2,0-5.9,0.8-8,2.3c-2.1,1.5-3.9,4-5.3,7.5
		l-16.1,37.1c-0.5,1.3-0.8,2.5-0.8,3.8c0,2.2,0.8,4,2.3,5.4c1.5,1.4,3.6,2.1,6.1,2.1c2.1,0,3.8-0.5,5-1.4s2.3-2.4,3-4.4l2.1-4.7
		h23.1l1.8,4.7c0.7,2,1.7,3.4,3,4.4s3,1.4,5.1,1.4c2.6,0,4.7-0.7,6.3-2.1c1.5-1.4,2.3-3.2,2.3-5.4
		C284,417.4,283.7,416.2,283.2,414.9L283.2,414.9z M255.5,387.5c1.5,4.4,4.1,11.8,5.3,15.2c0.3,0.9-0.4,1.9-1.3,1.9h-11.1
		c-1,0-1.7-1-1.3-1.9l5.8-15.2C253.4,386.2,255.1,386.2,255.5,387.5L255.5,387.5z"/>
	<path class="st1" d="M283.2,410.6l-16.1-37.1c-1.5-3.5-3.2-6-5.3-7.5c-2.1-1.5-4.7-2.3-7.9-2.3s-5.9,0.8-8,2.3
		c-2.1,1.5-3.9,4-5.3,7.5l-16.1,37.1c-0.5,1.3-0.8,2.5-0.8,3.8c0,2.2,0.8,4,2.3,5.4c1.5,1.4,3.6,2.1,6.1,2.1c2.1,0,3.8-0.5,5-1.4
		c1.3-0.9,2.3-2.4,3-4.4l2.1-4.7h23.1l1.8,4.7c0.7,2,1.7,3.4,3,4.4s3,1.4,5.1,1.4c2.6,0,4.7-0.7,6.3-2.1c1.6-1.4,2.3-3.2,2.3-5.4
		C284,413.2,283.7,411.9,283.2,410.6L283.2,410.6z M255.5,383.2c1.5,4.4,4.1,11.8,5.3,15.2c0.3,0.9-0.4,1.9-1.3,1.9h-11.1
		c-1,0-1.7-1-1.3-1.9l5.8-15.2c0.2-0.6,0.8-0.9,1.3-0.9C254.8,382.3,255.3,382.7,255.5,383.2z"/>
	<path d="M291,423.9c-1.6-1.5-2.4-3.5-2.4-6v-40.5c0-2.8,0.8-5,2.4-6.4c1.6-1.5,3.8-2.2,6.7-2.2h19.9c4.4,0,8.4,0.8,11.9,2.3
		c3.5,1.5,6.3,3.7,8.3,6.7c2,2.9,3,6.4,3,10.5v0.5c0,5-1.4,9.2-4.3,12.4c-2.9,3.2-5.6,4.2-5.6,4.2l7.2,8.9c1,1.4,1.4,3,1.4,4.7
		c0,2.1-0.7,3.9-2.2,5.2c-1.5,1.4-3.4,2-5.7,2c-3.3,0-6-1.6-7.9-4.7l-8.1-13.3h-9.4v9.7c0,2.5-0.8,4.5-2.4,6
		c-1.6,1.5-3.7,2.3-6.4,2.3S292.6,425.4,291,423.9L291,423.9z M320.6,393.3c1.3-1,1.9-2.5,1.9-4.5v-0.5c0-2.1-0.6-3.6-1.9-4.5
		c-1.3-1-3.1-1.4-5.3-1.4h-9.2v12.4h9.2C317.5,394.7,319.3,394.2,320.6,393.3L320.6,393.3z"/>
	<path class="st1" d="M290.6,418.1c-1.1-1.8-1.2-3.6-1.2-4.5v-40.5c0-2.8,0.8-5,2.4-6.4c1.6-1.5,3.8-2.2,6.7-2.2h19.9
		c4.4,0,8.4,0.8,11.9,2.3c3.5,1.5,6.3,3.7,8.3,6.7c2,2.9,3,6.4,3,10.5v0.5c0,5-1.4,9.2-4.3,12.4c-1.4,1.6-2.8,2.7-3.9,3.3
		c-0.9,0.5-1,1.7-0.4,2.5l5.9,7.3c1,1.4,1.4,3,1.4,4.7c0,2.1-0.7,3.9-2.2,5.2c-1.5,1.4-3.4,2-5.7,2c-3.3,0-6-1.6-7.9-4.7l-7.6-12.5
		c-0.3-0.5-0.9-0.8-1.5-0.8h-6.8c-0.9,0-1.7,0.8-1.7,1.7v8c0,2.5-0.8,4.5-2.4,6c-2.4,2.3-5.7,2.3-6.4,2.3
		C297.4,421.9,292.9,421.8,290.6,418.1z M321.5,389c1.3-1,1.9-2.5,1.9-4.5V384c0-2.1-0.6-3.6-1.9-4.5c-1.3-1-3.1-1.4-5.3-1.4h-7.5
		c-0.9,0-1.7,0.8-1.7,1.7v9c0,0.9,0.8,1.7,1.7,1.7h7.5C318.4,390.5,320.2,390,321.5,389L321.5,389z"/>
	<path d="M349.6,423.2c-1.6-1.5-2.4-3.6-2.4-6.4v-39.4c0-2.8,0.8-5,2.4-6.4c1.6-1.5,3.8-2.2,6.7-2.2h15.5c6.3,0,11.9,1.1,16.7,3.2
		c4.8,2.1,8.5,5.3,11.1,9.5c2.7,4.2,4,9.2,4,15v1.3c0,5.9-1.3,10.8-4,15c-2.7,4.1-6.4,7.3-11.2,9.5c-4.8,2.1-10.3,3.2-16.6,3.2
		h-15.5C353.4,425.4,351.2,424.7,349.6,423.2L349.6,423.2z M381.6,408.7c2.4-2.2,3.7-5.8,3.7-10.9v-1.3c0-5.1-1.2-8.7-3.7-10.9
		c-2.4-2.2-6-3.3-10.6-3.3h-6.2v29.6h6.1C375.5,411.9,379.1,410.8,381.6,408.7L381.6,408.7z"/>
	<path class="st1" d="M350.5,418.9c-1.6-1.5-2.4-3.6-2.4-6.4v-39.4c0-2.8,0.8-5,2.4-6.4c1.6-1.5,3.8-2.2,6.7-2.2h15.5
		c6.3,0,11.9,1.1,16.7,3.2c4.8,2.1,8.5,5.3,11.1,9.5c2.7,4.2,4,9.2,4,15v1.3c0,5.9-1.3,10.8-4,15c-2.7,4.1-6.4,7.3-11.2,9.5
		c-4.8,2.1-10.3,3.2-16.6,3.2h-15.5C354.3,421.2,352.1,420.4,350.5,418.9L350.5,418.9z M382.3,404.5c7.4-6.8,3.1-18.2,2.9-18.8
		c-0.4-0.9-1-2.8-2.7-4.4c-2.4-2.2-6-3.3-10.6-3.3h-4.8c-0.8,0-1.5,0.7-1.5,1.5v26.7c0,0.8,0.7,1.5,1.5,1.5l0,0
		C367.6,407.8,376.3,410.1,382.3,404.5z"/>
	<path d="M423,422.7c-4.7-2.5-8.2-5.9-10.7-10.2s-3.7-9.2-3.7-14.7v-1.3c0-5.5,1.2-10.4,3.7-14.7c2.5-4.3,6.1-7.8,10.7-10.2
		c4.6-2.5,10.1-3.8,16.2-3.8s11.7,1.2,16.3,3.8c4.6,2.5,8.2,5.9,10.7,10.2c2.5,4.3,3.7,9.2,3.7,14.7v1.3c0,5.5-1.2,10.4-3.7,14.7
		c-2.5,4.3-6.1,7.8-10.7,10.2c-4.7,2.5-10.1,3.8-16.3,3.8S427.6,425.2,423,422.7z M446,411.1c1.9-1.2,3.2-3,4.2-5.2
		c1-2.3,1.4-5,1.4-8.1v-1.3c0-3.1-0.5-5.9-1.4-8.1c-0.9-2.3-2.3-4-4.2-5.2c-1.9-1.2-4.1-1.8-6.8-1.8s-5,0.6-6.8,1.8
		c-1.8,1.2-3.2,2.9-4.1,5.2c-0.9,2.3-1.4,5-1.4,8.1v1.3c0,3.1,0.5,5.8,1.4,8.1c1,2.3,2.3,4,4.2,5.2s4,1.8,6.7,1.8
		S444.1,412.3,446,411.1L446,411.1z"/>
	<path class="st1" d="M423.9,418.5c-4.7-2.5-8.2-5.9-10.7-10.2s-3.7-9.2-3.7-14.7v-1.3c0-5.5,1.2-10.4,3.7-14.7
		c2.5-4.3,6.1-7.8,10.7-10.2c4.6-2.5,10.1-3.8,16.2-3.8s11.7,1.2,16.3,3.8c4.6,2.5,8.2,5.9,10.7,10.2c2.5,4.3,3.7,9.2,3.7,14.7v1.3
		c0,5.5-1.2,10.4-3.7,14.7c-2.5,4.3-6.1,7.8-10.7,10.2c-4.7,2.5-10.1,3.8-16.3,3.8S428.5,421,423.9,418.5z M444,407.9
		c3.1-1,5.7-3.2,7-6.2c0,0,0,0,0-0.1c1-2.3,1.4-5,1.4-8.1v-1.3c0-3.1-0.5-5.9-1.4-8.1c-0.9-2.3-2.3-4-4.2-5.2
		c-1.9-1.2-4.1-1.8-6.8-1.8s-5,0.6-6.8,1.8c-1.8,1.2-3.2,2.9-4.1,5.2c-0.9,2.3-1.4,5-1.4,8.1v1.3c0,3.1,0.5,5.8,1.4,8.1
		c1,2.3,2.3,4,4.2,5.2s4,1.8,6.7,1.8C441.3,408.6,442.8,408.3,444,407.9z"/>
</g>
<g id="firstname">
	<path d="M14.3,345.7c-3.8-3.8-5.8-8.8-5.8-15l0.1-101c0-7,1.9-12.4,5.6-16s9-5.5,15.9-5.5l46.9,0c10.5,0,19.8,1.9,28.1,5.7
		s14.8,9.3,19.6,16.6c4.8,7.3,7.2,16,7.2,26.2v1.2c0,12.6-3.4,22.9-10.2,30.9c-6.8,8-12.3,11-12.3,11l16.2,21.7
		c2.2,3.6,3.4,7.5,3.4,11.7c0,5.3-1.8,9.6-5.3,13c-3.5,3.4-8,5.1-13.4,5.1c-7.8,0-14.1-3.9-18.7-11.7l-19.1-33.2H50.1l0,24.2
		c0,6.2-1.9,11.2-5.7,15s-8.8,5.7-15,5.7C23.2,351.4,18.2,349.5,14.3,345.7L14.3,345.7z M84.3,269.3c3.1-2.4,4.6-6.2,4.6-11.3v-1.2
		c0-5.2-1.5-8.9-4.6-11.3s-7.2-3.6-12.5-3.6H50.1l0,31h21.7C77.1,272.9,81.3,271.7,84.3,269.3L84.3,269.3z"/>
	<path class="st2" d="M13.5,336.7c-3.8-3.8-5.8-8.8-5.8-15l0.1-101c0-7,1.9-12.4,5.6-16s9-5.5,15.9-5.5l46.9,0
		c10.5,0,19.8,1.9,28.1,5.7s14.8,9.3,19.6,16.6c4.8,7.3,7.2,16,7.2,26.2v1.2c0,12.6-3.4,22.9-10.2,30.9c-3.9,4.6-7.4,7.5-9.7,9.2
		c-1.4,1.1-1.7,3.1-0.7,4.5l14.1,18.9c0.1,0.1,0.1,0.2,0.2,0.3c2.2,3.5,3.3,7.4,3.3,11.6c0,5.3-1.8,9.6-5.3,13
		c-3.5,3.4-8,5.1-13.4,5.1c-7.8,0-14.1-3.9-18.7-11.7L72.5,299c-0.6-1-1.6-1.6-2.8-1.6H52.5c-1.8,0-3.2,1.4-3.2,3.2l0,21
		c0,6.2-1.9,11.2-5.7,15c-3.8,3.8-8.8,5.7-15,5.7C22.4,342.4,17.3,340.5,13.5,336.7L13.5,336.7z M88.1,247.7c0-5.2-1.5-8.9-4.6-11.3
		s-7.2-3.6-12.5-3.6H52.5c-1.8,0-3.2,1.4-3.2,3.2l0,24.6c0,1.8,1.4,3.2,3.2,3.2H71c0.8,0,9.5,0.1,14.3-6.8
		C87.9,253.3,88.1,249.4,88.1,247.7z"/>
	<path d="M154.5,345.7c-3.8-3.8-5.8-8.9-5.8-15.1l0.1-103.4c0-6.2,1.9-11.3,5.8-15.1c3.8-3.8,8.9-5.8,15.3-5.8s11.3,1.9,15.1,5.8
		c3.8,3.9,5.8,8.9,5.8,15.1l-0.1,103.4c0,6.2-1.9,11.3-5.8,15.1c-3.9,3.8-8.9,5.8-15.1,5.8S158.3,349.5,154.5,345.7L154.5,345.7z"/>
	<path class="st2" d="M153.6,336.6c-3.8-3.8-5.8-8.9-5.8-15.1l0.1-103.4c0-6.2,1.9-11.3,5.8-15.1c3.8-3.8,8.9-5.8,15.3-5.8
		s11.3,1.9,15.1,5.8c3.8,3.9,5.8,8.9,5.8,15.1l-0.1,103.4c0,6.2-1.9,11.3-5.8,15.1c-3.9,3.8-8.9,5.8-15.1,5.8
		S157.5,340.5,153.6,336.6L153.6,336.6z"/>
	<path d="M241.8,342.9c-10.9-6.1-19.2-14.6-24.9-25.5c-5.8-10.9-8.6-23.2-8.6-37v-3.2c0-13.8,3-26.1,9-37
		c6-10.9,14.4-19.3,25.4-25.4c10.9-6.1,23.6-9.1,38.1-9.1c11.9,0,22.5,2.3,31.6,7c9.1,4.6,16.2,10.3,21.1,16.9
		c2.4,3.3,4.1,6.4,5.2,9.2c1.1,2.9,1.6,5.6,1.6,8.2c0,4.9-1.5,8.9-4.6,12.1s-7,4.8-11.9,4.8c-3.7,0-7-0.9-9.9-2.6
		c-2.9-1.7-5.9-4.4-8.9-8.2c-3.5-4.1-7.1-7.2-11.1-9.4c-4-2.1-8.5-3.2-13.7-3.2c-6.1,0-11.2,1.5-15.4,4.5s-7.3,7.2-9.4,12.7
		c-2.1,5.5-3.2,12-3.2,19.4v3.2c0,7.4,1.1,13.9,3.2,19.4c2.1,5.5,5.3,9.7,9.5,12.7c4.2,3,9.3,4.5,15.3,4.5c6.2,0,11.7-1.3,16.3-3.9
		c4.6-2.6,9-6.9,13.1-13c2.5-3.8,5-6.5,7.5-8c2.5-1.5,5.7-2.3,9.6-2.3c4.5,0,8.1,1.5,10.9,4.5c2.8,3,4.2,7.1,4.2,12.2
		c0,2-0.2,4-0.6,6s-1,3.9-1.8,5.8c-4,9.8-11.2,17.9-21.8,24.2s-22.8,9.5-36.9,9.5C265.5,352.1,252.6,349,241.8,342.9L241.8,342.9z"
		/>
	<path class="st2" d="M240.9,333.9c-10.9-6.1-19.2-14.6-24.9-25.5c-5.8-10.9-8.6-23.2-8.6-37v-3.2c0-13.8,3-26.1,9-37
		c6-10.9,14.4-19.3,25.4-25.4c10.9-6.1,23.6-9.1,38.1-9.1c11.9,0,22.5,2.3,31.6,7c9.1,4.6,16.2,10.3,21.1,16.9
		c2.4,3.3,4.1,6.4,5.2,9.2c1.1,2.9,1.6,5.6,1.6,8.2c0,4.9-1.5,8.9-4.6,12.1s-7,4.8-11.9,4.8c-3.7,0-7-0.9-9.9-2.6
		c-2.9-1.7-5.9-4.4-8.9-8.2c-3.5-4.1-7.1-7.2-11.1-9.4c-4-2.1-8.5-3.2-13.7-3.2c-6.1,0-11.2,1.5-15.4,4.5s-7.3,7.2-9.4,12.7
		c-2.1,5.5-3.2,12-3.2,19.4v3.2c0,7.4,1.1,13.9,3.2,19.4s5.3,9.7,9.5,12.7c4.2,3,9.3,4.5,15.3,4.5c6.2,0,11.7-1.3,16.3-3.9
		c4.6-2.6,9-6.9,13.1-13c2.5-3.8,5-6.5,7.5-8c2.5-1.5,5.7-2.3,9.6-2.3c4.5,0,8.1,1.5,10.9,4.5c2.8,3,4.2,7.1,4.2,12.2
		c0,2-0.2,4-0.6,6s-1,3.9-1.8,5.8c-4,9.8-11.2,17.9-21.8,24.2s-22.8,9.5-36.9,9.5C264.7,343.1,251.8,340,240.9,333.9L240.9,333.9z"
		/>
	<path d="M361.2,344c-3.7-3.7-5.6-9-5.6-15.9l0-98.2c0-7,1.9-12.4,5.6-16c3.7-3.6,9-5.5,15.9-5.5l73.4,0c5,0,9.1,1.5,12.1,4.6
		c3,3.1,4.6,7.1,4.6,12.1c0,5-1.5,9.1-4.6,12.1s-7.1,4.6-12.1,4.6l-53.3,0v19.9l46.1,0c4.9,0,8.8,1.5,11.7,4.4
		c2.9,2.9,4.4,6.8,4.4,11.7c0,4.9-1.5,8.9-4.4,11.8c-2.9,3-6.8,4.5-11.7,4.5l-46.1,0v21.7l55.1,0c5,0,9.1,1.6,12.2,4.7
		c3.1,3.1,4.7,7.2,4.7,12.2s-1.6,9.1-4.7,12.2c-3.1,3.1-7.2,4.7-12.2,4.7l-75.2,0C370.3,349.6,365,347.7,361.2,344L361.2,344z"/>
	<path class="st2" d="M360.4,334.9c-3.7-3.7-5.6-9-5.6-15.9l0-98.2c0-7,1.9-12.4,5.6-16c3.7-3.6,9-5.5,15.9-5.5l73.4,0
		c5,0,9.1,1.5,12.1,4.6c3,3.1,4.6,7.1,4.6,12.1c0,5-1.5,9.1-4.6,12.1s-7.1,4.6-12.1,4.6l-53.3,0v19.9l46.1,0c4.9,0,8.8,1.5,11.7,4.4
		c2.9,2.9,4.4,6.8,4.4,11.7c0,4.9-1.5,8.9-4.4,11.8s-6.8,4.5-11.7,4.5l-46.1,0v21.7l55.1,0c5,0,9.1,1.6,12.2,4.7
		c3.1,3.1,4.7,7.2,4.7,12.2c0,5-1.6,9.1-4.7,12.2c-3.1,3.1-7.2,4.7-12.2,4.7l-75.2,0C369.4,340.5,364.1,338.7,360.4,334.9
		L360.4,334.9z"/>
</g>
</svg>
